<?xml version="1.0" encoding="utf-8"?>
<!-- Generator: Adobe Illustrator 23.0.4, SVG Export Plug-In . SVG Version: 6.00 Build 0)  -->
<svg version="1.1" xmlns="http://www.w3.org/2000/svg" xmlns:xlink="http://www.w3.org/1999/xlink" x="0px" y="0px"
	 viewBox="0 0 515 143" style="enable-background:new 0 0 515 143;" xml:space="preserve">
<style type="text/css">
	.st0{fill:#C60139;}
	.st1{fill:#7D7D7D;}
	.st2{fill:#565656;}
</style>
<g id="Layer_1">
</g>
<g id="Layer_4">
</g>
<g id="Layer_2">
</g>
<g id="Layer_3">
	<g>
		<path class="st0" d="M113.85,116.69c-16.86,0-31.61-9.02-39.7-22.5c-8.68,1.31-17.04,2.13-24.89,2.42
			C59.51,120.91,83.58,138,111.56,138c19.42,0,37.92-8.37,50.75-22.96l-14.73-12.96C139.14,111.07,127.16,116.69,113.85,116.69z"/>
		<path class="st0" d="M113.85,24.15c13.33,0,25.33,5.64,33.77,14.66l14.74-12.94c-12.84-14.63-31.36-23.03-50.82-23.03
			c-36.6,0-66.5,29.25-67.55,65.6c6.05,2.5,14.15,4.21,23.68,4.98c-0.06-0.99-0.11-1.99-0.11-3C67.58,44.87,88.3,24.15,113.85,24.15
			z"/>
	</g>
	<path class="st1" d="M123.6,73.29c-58.68,10.78-97.97,4.79-95.17-20.6c1.07-9.69,11.99-20.03,27.62-29.66
		C21.48,38.04,2.92,54.83,3,70.09c0.12,21.21,41.28,30.63,98.09,14.65c19.27-5.42,37.53-11.54,53.01-18.95
		C144.35,68.75,134.11,71.29,123.6,73.29"/>
	<g>
		<path class="st2" d="M202.08,49.72c-0.79-1.06-1.77-1.86-2.93-2.39c-1.16-0.53-2.37-0.8-3.63-0.8c-1.46,0-2.8,0.3-4.02,0.89
			c-1.22,0.59-2.28,1.39-3.17,2.39s-1.58,2.16-2.08,3.48c-0.49,1.32-0.74,2.7-0.74,4.13c0,1.53,0.25,2.96,0.74,4.28
			c0.49,1.32,1.18,2.47,2.06,3.45c0.88,0.98,1.93,1.75,3.15,2.32s2.58,0.85,4.06,0.85c1.61,0,3.04-0.31,4.3-0.95
			c1.26-0.63,2.36-1.54,3.3-2.72l2.33,1.96c-1.19,1.58-2.61,2.74-4.28,3.48c-1.67,0.74-3.55,1.11-5.65,1.11
			c-1.88,0-3.63-0.35-5.26-1.04c-1.63-0.69-3.04-1.65-4.24-2.87c-1.2-1.22-2.14-2.67-2.82-4.35c-0.68-1.68-1.02-3.52-1.02-5.52
			c0-1.93,0.33-3.73,0.98-5.41c0.65-1.68,1.58-3.14,2.76-4.37c1.19-1.23,2.59-2.21,4.22-2.93c1.63-0.72,3.42-1.07,5.37-1.07
			c1.78,0,3.49,0.32,5.13,0.96c1.64,0.64,3.02,1.69,4.13,3.15L202.08,49.72z"/>
		<path class="st2" d="M212.23,57.32c0-0.79-0.02-1.53-0.07-2.22c-0.05-0.69-0.07-1.32-0.07-1.89h2.74c0,0.47,0.01,0.94,0.04,1.41
			c0.02,0.47,0.04,0.95,0.04,1.45h0.07c0.2-0.42,0.48-0.83,0.83-1.22c0.36-0.39,0.78-0.75,1.28-1.06c0.49-0.31,1.05-0.56,1.67-0.74
			c0.62-0.19,1.28-0.28,2-0.28c0.2,0,0.4,0.01,0.59,0.04c0.2,0.02,0.39,0.07,0.59,0.15l-0.19,2.93c-0.49-0.15-1.01-0.22-1.56-0.22
			c-1.78,0-3.07,0.58-3.87,1.72c-0.8,1.15-1.2,2.72-1.2,4.73v8.45h-2.89V57.32z"/>
		<path class="st2" d="M227.84,46.42c0-0.57,0.2-1.06,0.61-1.48c0.41-0.42,0.91-0.63,1.5-0.63s1.09,0.21,1.5,0.63
			s0.61,0.91,0.61,1.48c0,0.62-0.2,1.12-0.59,1.52c-0.4,0.4-0.9,0.59-1.52,0.59c-0.62,0-1.12-0.2-1.52-0.59
			C228.03,47.55,227.84,47.04,227.84,46.42z M228.5,53.2h2.89v17.34h-2.89V53.2z"/>
		<path class="st2" d="M249.59,55.65h-5.11v8.67c0,0.57,0.01,1.09,0.04,1.58c0.02,0.48,0.12,0.9,0.3,1.26s0.43,0.64,0.78,0.85
			c0.35,0.21,0.84,0.31,1.48,0.31c0.42,0,0.85-0.05,1.3-0.15c0.44-0.1,0.86-0.25,1.26-0.44l0.11,2.63
			c-0.49,0.22-1.04,0.38-1.65,0.48c-0.61,0.1-1.18,0.15-1.72,0.15c-1.04,0-1.87-0.14-2.48-0.41c-0.62-0.27-1.1-0.65-1.45-1.15
			c-0.35-0.49-0.57-1.1-0.69-1.83c-0.11-0.73-0.17-1.54-0.17-2.43v-9.52h-3.78V53.2h3.78v-4.93h2.89v4.93h5.11V55.65z"/>
		<path class="st2" d="M255.74,46.42c0-0.57,0.2-1.06,0.61-1.48c0.41-0.42,0.91-0.63,1.5-0.63s1.09,0.21,1.5,0.63
			s0.61,0.91,0.61,1.48c0,0.62-0.2,1.12-0.59,1.52c-0.4,0.4-0.9,0.59-1.52,0.59c-0.62,0-1.12-0.2-1.52-0.59
			C255.94,47.55,255.74,47.04,255.74,46.42z M256.4,53.2h2.89v17.34h-2.89V53.2z"/>
		<path class="st2" d="M280.34,57.54c-0.62-0.74-1.28-1.28-2-1.61c-0.72-0.33-1.51-0.5-2.37-0.5c-0.96,0-1.82,0.17-2.56,0.5
			c-0.74,0.33-1.35,0.8-1.83,1.39c-0.48,0.59-0.85,1.28-1.09,2.06c-0.25,0.78-0.37,1.61-0.37,2.5c0,0.89,0.14,1.72,0.43,2.5
			c0.28,0.78,0.68,1.46,1.19,2.06s1.12,1.06,1.83,1.39c0.72,0.33,1.52,0.5,2.41,0.5c1.9,0,3.37-0.72,4.41-2.15l2.15,2.04
			c-0.84,0.96-1.83,1.67-2.96,2.11c-1.14,0.44-2.33,0.67-3.59,0.67c-1.33,0-2.56-0.22-3.67-0.67c-1.11-0.45-2.06-1.08-2.83-1.89
			c-0.78-0.81-1.38-1.78-1.82-2.89c-0.43-1.11-0.65-2.33-0.65-3.67c0-1.31,0.22-2.52,0.65-3.63c0.43-1.11,1.04-2.08,1.83-2.89
			c0.79-0.82,1.74-1.45,2.83-1.91c1.1-0.46,2.32-0.69,3.65-0.69c1.28,0,2.5,0.22,3.65,0.67c1.15,0.44,2.16,1.14,3.02,2.08
			L280.34,57.54z"/>
		<path class="st2" d="M288.61,55.43c0.89-0.91,1.95-1.59,3.17-2.02c1.22-0.43,2.46-0.65,3.72-0.65c2.57,0,4.42,0.61,5.56,1.82
			c1.14,1.21,1.71,3.05,1.71,5.52v7.45c0,0.49,0.02,1.01,0.07,1.54c0.05,0.53,0.11,1.02,0.19,1.46h-2.78
			c-0.1-0.4-0.15-0.83-0.17-1.32c-0.01-0.48-0.02-0.91-0.02-1.28h-0.07c-0.57,0.89-1.33,1.62-2.28,2.19
			c-0.95,0.57-2.09,0.85-3.43,0.85c-0.89,0-1.72-0.11-2.5-0.33c-0.78-0.22-1.46-0.55-2.04-0.98c-0.58-0.43-1.04-0.97-1.39-1.61
			c-0.35-0.64-0.52-1.38-0.52-2.22c0-1.43,0.37-2.56,1.11-3.37c0.74-0.81,1.66-1.42,2.76-1.81c1.1-0.4,2.28-0.64,3.56-0.74
			c1.27-0.1,2.44-0.15,3.5-0.15h1.11v-0.52c0-1.26-0.38-2.21-1.13-2.85c-0.75-0.64-1.81-0.96-3.17-0.96c-0.94,0-1.86,0.16-2.76,0.46
			s-1.7,0.78-2.39,1.43L288.61,55.43z M296.98,62.21c-1.85,0-3.32,0.26-4.41,0.78c-1.09,0.52-1.63,1.37-1.63,2.56
			c0,1.09,0.36,1.86,1.09,2.32c0.73,0.46,1.64,0.69,2.72,0.69c0.84,0,1.57-0.14,2.2-0.43c0.63-0.28,1.15-0.66,1.58-1.13
			c0.42-0.47,0.74-1.02,0.96-1.65c0.22-0.63,0.35-1.3,0.37-2.02v-1.11H296.98z"/>
		<path class="st2" d="M311.29,42.53h2.89v28.01h-2.89V42.53z"/>
		<path class="st2" d="M336.67,44.31h6.71c1.26,0,2.51,0.07,3.76,0.22c1.25,0.15,2.37,0.47,3.35,0.96s1.79,1.22,2.41,2.17
			c0.62,0.95,0.93,2.24,0.93,3.87c0,1.93-0.58,3.48-1.74,4.67c-1.16,1.19-2.77,1.94-4.82,2.26l7.45,12.08h-3.82l-7.12-11.78h-4
			v11.78h-3.11V44.31z M339.78,55.87h2.78c0.86,0,1.76-0.02,2.69-0.07c0.93-0.05,1.78-0.21,2.56-0.48c0.78-0.27,1.42-0.7,1.93-1.28
			c0.51-0.58,0.76-1.41,0.76-2.5c0-0.94-0.19-1.69-0.56-2.26s-0.86-1.01-1.46-1.32c-0.61-0.31-1.29-0.51-2.04-0.61
			c-0.75-0.1-1.51-0.15-2.28-0.15h-4.37V55.87z"/>
		<path class="st2" d="M377.25,67.4c-1.04,1.33-2.17,2.27-3.41,2.8c-1.24,0.53-2.67,0.8-4.3,0.8c-1.36,0-2.58-0.24-3.67-0.72
			c-1.09-0.48-2.01-1.13-2.76-1.95c-0.75-0.81-1.33-1.78-1.74-2.89c-0.41-1.11-0.61-2.3-0.61-3.56c0-1.33,0.22-2.56,0.67-3.69
			c0.45-1.12,1.06-2.09,1.85-2.89c0.79-0.8,1.73-1.43,2.82-1.87c1.09-0.45,2.27-0.67,3.56-0.67c1.21,0,2.32,0.2,3.33,0.61
			c1.01,0.41,1.88,1,2.61,1.78c0.73,0.78,1.29,1.73,1.69,2.85c0.4,1.12,0.59,2.4,0.59,3.84v0.93h-14.01
			c0.05,0.74,0.23,1.45,0.54,2.13s0.71,1.27,1.2,1.78s1.08,0.91,1.74,1.2s1.4,0.44,2.19,0.44c1.26,0,2.32-0.22,3.19-0.67
			c0.86-0.44,1.64-1.1,2.33-1.96L377.25,67.4z M374.76,60.32c-0.05-1.48-0.53-2.67-1.45-3.56s-2.17-1.33-3.78-1.33
			c-1.61,0-2.9,0.44-3.89,1.33s-1.58,2.08-1.78,3.56H374.76z"/>
		<path class="st2" d="M385.7,65.99c0.57,0.72,1.19,1.29,1.87,1.7c0.68,0.42,1.54,0.63,2.58,0.63c0.44,0,0.9-0.05,1.35-0.15
			c0.46-0.1,0.87-0.26,1.24-0.48c0.37-0.22,0.67-0.5,0.89-0.83c0.22-0.33,0.33-0.74,0.33-1.21c0-0.47-0.1-0.85-0.31-1.15
			s-0.49-0.55-0.83-0.76c-0.35-0.21-0.74-0.38-1.19-0.5s-0.9-0.23-1.37-0.33c-0.82-0.17-1.59-0.37-2.33-0.59s-1.39-0.51-1.95-0.87
			c-0.56-0.36-1-0.82-1.33-1.39s-0.5-1.3-0.5-2.19c0-0.84,0.18-1.58,0.56-2.22c0.37-0.64,0.86-1.17,1.48-1.59
			c0.62-0.42,1.31-0.74,2.08-0.96c0.77-0.22,1.56-0.33,2.37-0.33c1.24,0,2.38,0.25,3.43,0.74s1.87,1.3,2.46,2.41l-2.41,1.59
			c-0.37-0.62-0.86-1.12-1.46-1.5c-0.61-0.38-1.34-0.57-2.2-0.57c-0.4,0-0.8,0.05-1.21,0.15c-0.41,0.1-0.77,0.25-1.09,0.44
			c-0.32,0.2-0.59,0.45-0.8,0.76s-0.31,0.66-0.31,1.06c0,0.37,0.12,0.69,0.35,0.94c0.23,0.26,0.56,0.49,0.96,0.69
			c0.41,0.2,0.88,0.37,1.41,0.52c0.53,0.15,1.08,0.27,1.65,0.37c0.77,0.15,1.49,0.34,2.19,0.57c0.69,0.23,1.3,0.55,1.82,0.95
			c0.52,0.39,0.93,0.89,1.22,1.48c0.3,0.59,0.44,1.32,0.44,2.19c0,0.99-0.2,1.83-0.59,2.52c-0.4,0.69-0.92,1.25-1.58,1.69
			c-0.65,0.43-1.4,0.75-2.22,0.95c-0.83,0.2-1.67,0.3-2.54,0.3c-1.48,0-2.76-0.23-3.83-0.69c-1.08-0.46-2.04-1.3-2.91-2.54
			L385.7,65.99z"/>
		<path class="st2" d="M403.93,53.2h2.89v2.52h0.07c0.79-0.94,1.71-1.67,2.76-2.19c1.05-0.52,2.21-0.78,3.46-0.78
			c1.36,0,2.6,0.23,3.72,0.69c1.12,0.46,2.08,1.09,2.87,1.91s1.41,1.78,1.85,2.89c0.44,1.11,0.67,2.32,0.67,3.63
			s-0.22,2.52-0.67,3.63c-0.45,1.11-1.06,2.08-1.83,2.89c-0.78,0.82-1.7,1.45-2.76,1.91s-2.2,0.69-3.41,0.69
			c-1.56,0-2.92-0.34-4.09-1.02c-1.17-0.68-2.03-1.51-2.58-2.5h-0.07v11.52h-2.89V53.2z M406.82,61.88c0,0.91,0.14,1.76,0.43,2.54
			s0.7,1.46,1.24,2.04c0.54,0.58,1.19,1.04,1.95,1.37c0.75,0.33,1.6,0.5,2.54,0.5c0.94,0,1.78-0.17,2.54-0.5s1.4-0.79,1.95-1.37
			c0.54-0.58,0.96-1.26,1.24-2.04c0.28-0.78,0.43-1.62,0.43-2.54s-0.14-1.76-0.43-2.54c-0.28-0.78-0.7-1.46-1.24-2.04
			c-0.54-0.58-1.19-1.04-1.95-1.37c-0.75-0.33-1.6-0.5-2.54-0.5c-0.94,0-1.79,0.17-2.54,0.5c-0.75,0.33-1.4,0.79-1.95,1.37
			c-0.54,0.58-0.96,1.26-1.24,2.04C406.96,60.11,406.82,60.96,406.82,61.88z"/>
		<path class="st2" d="M428.68,61.88c0-1.36,0.24-2.59,0.7-3.71c0.47-1.11,1.11-2.07,1.93-2.87c0.81-0.8,1.79-1.43,2.93-1.87
			c1.14-0.45,2.37-0.67,3.71-0.67s2.57,0.22,3.71,0.67c1.14,0.44,2.11,1.07,2.93,1.87c0.82,0.8,1.46,1.76,1.93,2.87
			c0.47,1.11,0.7,2.35,0.7,3.71c0,1.36-0.24,2.59-0.7,3.71c-0.47,1.11-1.11,2.07-1.93,2.87c-0.81,0.8-1.79,1.43-2.93,1.87
			c-1.14,0.44-2.37,0.67-3.71,0.67s-2.57-0.22-3.71-0.67c-1.14-0.45-2.11-1.07-2.93-1.87c-0.82-0.8-1.46-1.76-1.93-2.87
			C428.92,64.47,428.68,63.23,428.68,61.88z M431.79,61.88c0,0.91,0.14,1.76,0.43,2.54s0.7,1.46,1.24,2.04
			c0.54,0.58,1.19,1.04,1.95,1.37c0.75,0.33,1.6,0.5,2.54,0.5c0.94,0,1.78-0.17,2.54-0.5s1.4-0.79,1.95-1.37
			c0.54-0.58,0.96-1.26,1.24-2.04c0.28-0.78,0.43-1.62,0.43-2.54s-0.14-1.76-0.43-2.54c-0.28-0.78-0.7-1.46-1.24-2.04
			c-0.54-0.58-1.19-1.04-1.95-1.37c-0.75-0.33-1.6-0.5-2.54-0.5c-0.94,0-1.79,0.17-2.54,0.5c-0.75,0.33-1.4,0.79-1.95,1.37
			c-0.54,0.58-0.96,1.26-1.24,2.04C431.94,60.11,431.79,60.96,431.79,61.88z"/>
		<path class="st2" d="M454.66,57.32c0-0.79-0.02-1.53-0.07-2.22s-0.07-1.32-0.07-1.89h2.74c0,0.47,0.01,0.94,0.04,1.41
			c0.02,0.47,0.04,0.95,0.04,1.45h0.07c0.2-0.42,0.48-0.83,0.83-1.22c0.36-0.39,0.78-0.75,1.28-1.06c0.49-0.31,1.05-0.56,1.67-0.74
			c0.62-0.19,1.28-0.28,2-0.28c1.14,0,2.12,0.17,2.95,0.52s1.51,0.83,2.06,1.45s0.95,1.37,1.21,2.24c0.26,0.88,0.39,1.83,0.39,2.87
			v10.71h-2.89V60.13c0-1.46-0.32-2.61-0.96-3.45c-0.64-0.84-1.64-1.26-3-1.26c-0.94,0-1.75,0.16-2.43,0.48
			c-0.68,0.32-1.24,0.78-1.67,1.37c-0.43,0.59-0.75,1.3-0.96,2.11s-0.31,1.72-0.31,2.71v8.45h-2.89V57.32z"/>
		<path class="st2" d="M478.6,65.99c0.57,0.72,1.19,1.29,1.87,1.7c0.68,0.42,1.54,0.63,2.58,0.63c0.44,0,0.9-0.05,1.35-0.15
			c0.46-0.1,0.87-0.26,1.24-0.48c0.37-0.22,0.67-0.5,0.89-0.83c0.22-0.33,0.33-0.74,0.33-1.21c0-0.47-0.1-0.85-0.31-1.15
			s-0.49-0.55-0.83-0.76c-0.35-0.21-0.74-0.38-1.19-0.5s-0.9-0.23-1.37-0.33c-0.82-0.17-1.59-0.37-2.33-0.59s-1.39-0.51-1.95-0.87
			c-0.56-0.36-1-0.82-1.33-1.39s-0.5-1.3-0.5-2.19c0-0.84,0.18-1.58,0.56-2.22c0.37-0.64,0.86-1.17,1.48-1.59
			c0.62-0.42,1.31-0.74,2.08-0.96c0.77-0.22,1.56-0.33,2.37-0.33c1.24,0,2.38,0.25,3.43,0.74s1.87,1.3,2.46,2.41l-2.41,1.59
			c-0.37-0.62-0.86-1.12-1.46-1.5c-0.61-0.38-1.34-0.57-2.2-0.57c-0.4,0-0.8,0.05-1.21,0.15c-0.41,0.1-0.77,0.25-1.09,0.44
			c-0.32,0.2-0.59,0.45-0.8,0.76s-0.31,0.66-0.31,1.06c0,0.37,0.12,0.69,0.35,0.94c0.23,0.26,0.56,0.49,0.96,0.69
			c0.41,0.2,0.88,0.37,1.41,0.52c0.53,0.15,1.08,0.27,1.65,0.37c0.77,0.15,1.49,0.34,2.19,0.57c0.69,0.23,1.3,0.55,1.82,0.95
			c0.52,0.39,0.93,0.89,1.22,1.48c0.3,0.59,0.44,1.32,0.44,2.19c0,0.99-0.2,1.83-0.59,2.52c-0.4,0.69-0.92,1.25-1.58,1.69
			c-0.65,0.43-1.4,0.75-2.22,0.95c-0.83,0.2-1.67,0.3-2.54,0.3c-1.48,0-2.76-0.23-3.83-0.69c-1.08-0.46-2.04-1.3-2.91-2.54
			L478.6,65.99z"/>
		<path class="st2" d="M512.47,67.4c-1.04,1.33-2.17,2.27-3.41,2.8c-1.24,0.53-2.67,0.8-4.3,0.8c-1.36,0-2.58-0.24-3.67-0.72
			c-1.09-0.48-2.01-1.13-2.76-1.95c-0.75-0.81-1.33-1.78-1.74-2.89c-0.41-1.11-0.61-2.3-0.61-3.56c0-1.33,0.22-2.56,0.67-3.69
			c0.45-1.12,1.06-2.09,1.85-2.89c0.79-0.8,1.73-1.43,2.82-1.87c1.09-0.45,2.27-0.67,3.56-0.67c1.21,0,2.32,0.2,3.33,0.61
			c1.01,0.41,1.88,1,2.61,1.78c0.73,0.78,1.29,1.73,1.69,2.85c0.4,1.12,0.59,2.4,0.59,3.84v0.93h-14.01
			c0.05,0.74,0.23,1.45,0.54,2.13s0.71,1.27,1.2,1.78s1.08,0.91,1.74,1.2s1.4,0.44,2.19,0.44c1.26,0,2.32-0.22,3.19-0.67
			c0.86-0.44,1.64-1.1,2.33-1.96L512.47,67.4z M509.98,60.32c-0.05-1.48-0.53-2.67-1.45-3.56s-2.17-1.33-3.78-1.33
			c-1.61,0-2.9,0.44-3.89,1.33s-1.58,2.08-1.78,3.56H509.98z"/>
		<path class="st2" d="M282.4,85.8h1.22l5.36,12.74h-1.33l-1.39-3.38h-6.75l-1.44,3.38h-1.24L282.4,85.8z M282.96,87.1l-2.97,6.98
			h5.85L282.96,87.1z"/>
		<path class="st2" d="M295.45,96.19c0.31,0.54,0.72,0.94,1.22,1.21c0.5,0.26,1.06,0.4,1.7,0.4c0.4,0,0.77-0.06,1.12-0.18
			c0.35-0.12,0.65-0.29,0.91-0.5c0.26-0.21,0.46-0.48,0.61-0.78c0.15-0.3,0.23-0.65,0.23-1.03c0-0.44-0.09-0.81-0.28-1.1
			c-0.19-0.29-0.44-0.52-0.75-0.71c-0.31-0.19-0.66-0.34-1.05-0.48c-0.39-0.13-0.79-0.26-1.21-0.4c-0.41-0.13-0.82-0.28-1.21-0.45
			c-0.39-0.17-0.74-0.39-1.05-0.66s-0.56-0.61-0.75-1.02c-0.19-0.41-0.28-0.91-0.28-1.51c0-0.56,0.11-1.06,0.33-1.5
			c0.22-0.44,0.52-0.8,0.9-1.1c0.38-0.29,0.81-0.52,1.31-0.67c0.49-0.15,1.01-0.22,1.55-0.22c0.7,0,1.34,0.12,1.94,0.37
			c0.59,0.25,1.11,0.66,1.54,1.23l-1.03,0.74c-0.3-0.42-0.65-0.74-1.05-0.95s-0.88-0.31-1.43-0.31c-0.38,0-0.75,0.05-1.1,0.15
			c-0.35,0.1-0.65,0.25-0.91,0.45c-0.26,0.2-0.46,0.45-0.62,0.75c-0.16,0.3-0.23,0.65-0.23,1.06c0,0.64,0.16,1.12,0.49,1.47
			c0.32,0.34,0.73,0.61,1.21,0.81s1.01,0.37,1.58,0.52c0.57,0.15,1.1,0.35,1.58,0.6s0.89,0.6,1.21,1.05
			c0.32,0.45,0.49,1.07,0.49,1.86c0,0.58-0.11,1.09-0.32,1.53c-0.22,0.44-0.51,0.82-0.87,1.12c-0.37,0.31-0.79,0.54-1.27,0.69
			s-0.98,0.23-1.49,0.23c-0.84,0-1.61-0.15-2.32-0.44s-1.31-0.79-1.82-1.49L295.45,96.19z"/>
		<path class="st2" d="M309.74,96.19c0.31,0.54,0.72,0.94,1.21,1.21c0.5,0.26,1.07,0.4,1.7,0.4c0.4,0,0.77-0.06,1.12-0.18
			c0.35-0.12,0.65-0.29,0.91-0.5c0.26-0.21,0.46-0.48,0.61-0.78c0.15-0.3,0.23-0.65,0.23-1.03c0-0.44-0.09-0.81-0.28-1.1
			c-0.19-0.29-0.43-0.52-0.75-0.71c-0.31-0.19-0.66-0.34-1.05-0.48c-0.39-0.13-0.79-0.26-1.21-0.4c-0.41-0.13-0.82-0.28-1.21-0.45
			s-0.74-0.39-1.05-0.66c-0.31-0.27-0.56-0.61-0.75-1.02c-0.19-0.41-0.28-0.91-0.28-1.51c0-0.56,0.11-1.06,0.33-1.5
			c0.22-0.44,0.52-0.8,0.9-1.1s0.81-0.52,1.3-0.67s1.01-0.22,1.55-0.22c0.7,0,1.34,0.12,1.94,0.37c0.59,0.25,1.11,0.66,1.54,1.23
			l-1.03,0.74c-0.3-0.42-0.65-0.74-1.05-0.95c-0.4-0.21-0.88-0.31-1.43-0.31c-0.38,0-0.75,0.05-1.1,0.15
			c-0.35,0.1-0.65,0.25-0.91,0.45c-0.26,0.2-0.46,0.45-0.62,0.75c-0.16,0.3-0.23,0.65-0.23,1.06c0,0.64,0.16,1.12,0.49,1.47
			c0.32,0.34,0.73,0.61,1.21,0.81c0.49,0.2,1.01,0.37,1.58,0.52c0.57,0.15,1.1,0.35,1.58,0.6c0.49,0.25,0.89,0.6,1.22,1.05
			c0.32,0.45,0.49,1.07,0.49,1.86c0,0.58-0.11,1.09-0.32,1.53c-0.22,0.44-0.51,0.82-0.87,1.12c-0.37,0.31-0.79,0.54-1.27,0.69
			s-0.98,0.23-1.49,0.23c-0.84,0-1.61-0.15-2.32-0.44c-0.71-0.29-1.31-0.79-1.82-1.49L309.74,96.19z"/>
		<path class="st2" d="M322.86,92.17c0-0.97,0.16-1.87,0.49-2.68c0.32-0.82,0.77-1.52,1.35-2.12s1.27-1.06,2.08-1.39
			s1.7-0.5,2.67-0.5s1.86,0.17,2.67,0.5c0.81,0.34,1.5,0.8,2.08,1.39s1.03,1.3,1.35,2.12c0.32,0.82,0.49,1.71,0.49,2.68
			s-0.16,1.87-0.49,2.69c-0.32,0.82-0.77,1.53-1.35,2.12c-0.58,0.59-1.27,1.06-2.08,1.39c-0.81,0.33-1.7,0.5-2.67,0.5
			s-1.86-0.17-2.67-0.5s-1.5-0.79-2.08-1.39c-0.58-0.59-1.03-1.3-1.35-2.12C323.02,94.04,322.86,93.15,322.86,92.17z M324.05,92.17
			c0,0.79,0.13,1.53,0.38,2.21c0.25,0.68,0.61,1.28,1.08,1.78c0.47,0.5,1.03,0.9,1.7,1.19c0.67,0.29,1.41,0.43,2.24,0.43
			s1.58-0.14,2.24-0.43c0.67-0.29,1.23-0.68,1.7-1.19s0.83-1.1,1.08-1.78c0.25-0.68,0.38-1.42,0.38-2.21s-0.13-1.53-0.38-2.21
			s-0.61-1.28-1.08-1.78s-1.04-0.9-1.7-1.19c-0.67-0.29-1.41-0.43-2.24-0.43s-1.58,0.14-2.24,0.43c-0.67,0.29-1.23,0.68-1.7,1.19
			c-0.47,0.5-0.83,1.1-1.08,1.78S324.05,91.38,324.05,92.17z"/>
		<path class="st2" d="M353.48,96.55c-0.61,0.83-1.32,1.42-2.12,1.78c-0.8,0.36-1.67,0.54-2.61,0.54c-0.97,0-1.86-0.17-2.67-0.5
			s-1.5-0.79-2.08-1.39c-0.58-0.59-1.03-1.3-1.35-2.12c-0.32-0.82-0.49-1.72-0.49-2.69s0.16-1.87,0.49-2.68
			c0.32-0.82,0.77-1.52,1.35-2.12s1.27-1.06,2.08-1.39s1.7-0.5,2.67-0.5c0.86,0,1.67,0.15,2.42,0.46c0.75,0.3,1.41,0.82,1.97,1.54
			l-0.97,0.81c-0.4-0.6-0.9-1.04-1.52-1.31c-0.62-0.28-1.25-0.41-1.9-0.41c-0.83,0-1.58,0.14-2.24,0.43
			c-0.67,0.29-1.23,0.68-1.7,1.19c-0.47,0.5-0.83,1.1-1.08,1.78s-0.38,1.42-0.38,2.21s0.13,1.53,0.38,2.21
			c0.25,0.68,0.61,1.28,1.08,1.78c0.47,0.5,1.03,0.9,1.7,1.19c0.67,0.29,1.41,0.43,2.24,0.43c0.32,0,0.66-0.04,1.01-0.12
			c0.35-0.08,0.69-0.2,1.02-0.36s0.64-0.37,0.94-0.61s0.56-0.54,0.79-0.89L353.48,96.55z"/>
		<path class="st2" d="M359.94,85.8h1.19v12.74h-1.19V85.8z"/>
		<path class="st2" d="M372.81,85.8h1.22l5.36,12.74h-1.33l-1.39-3.38h-6.75l-1.44,3.38h-1.24L372.81,85.8z M373.37,87.1l-2.97,6.98
			h5.85L373.37,87.1z"/>
		<path class="st2" d="M387.12,86.88h-4.36V85.8h9.9v1.08h-4.36v11.66h-1.19V86.88z"/>
		<path class="st2" d="M398.91,85.8h7.79v1.08h-6.61v4.54h6.19v1.08h-6.19v4.97h6.89v1.08h-8.08V85.8z"/>
		<path class="st2" d="M414.21,96.19c0.31,0.54,0.72,0.94,1.21,1.21c0.5,0.26,1.07,0.4,1.7,0.4c0.4,0,0.77-0.06,1.12-0.18
			c0.35-0.12,0.65-0.29,0.91-0.5c0.26-0.21,0.46-0.48,0.61-0.78c0.15-0.3,0.23-0.65,0.23-1.03c0-0.44-0.09-0.81-0.28-1.1
			c-0.19-0.29-0.43-0.52-0.75-0.71c-0.31-0.19-0.66-0.34-1.05-0.48c-0.39-0.13-0.79-0.26-1.21-0.4c-0.41-0.13-0.82-0.28-1.21-0.45
			s-0.74-0.39-1.05-0.66c-0.31-0.27-0.56-0.61-0.75-1.02c-0.19-0.41-0.28-0.91-0.28-1.51c0-0.56,0.11-1.06,0.33-1.5
			c0.22-0.44,0.52-0.8,0.9-1.1s0.81-0.52,1.3-0.67s1.01-0.22,1.55-0.22c0.7,0,1.34,0.12,1.94,0.37c0.59,0.25,1.11,0.66,1.54,1.23
			l-1.03,0.74c-0.3-0.42-0.65-0.74-1.05-0.95c-0.4-0.21-0.88-0.31-1.43-0.31c-0.38,0-0.75,0.05-1.1,0.15
			c-0.35,0.1-0.65,0.25-0.91,0.45c-0.26,0.2-0.46,0.45-0.62,0.75c-0.16,0.3-0.23,0.65-0.23,1.06c0,0.64,0.16,1.12,0.49,1.47
			c0.32,0.34,0.73,0.61,1.21,0.81c0.49,0.2,1.01,0.37,1.58,0.52c0.57,0.15,1.1,0.35,1.58,0.6c0.49,0.25,0.89,0.6,1.22,1.05
			c0.32,0.45,0.49,1.07,0.49,1.86c0,0.58-0.11,1.09-0.32,1.53c-0.22,0.44-0.51,0.82-0.87,1.12c-0.37,0.31-0.79,0.54-1.27,0.69
			s-0.98,0.23-1.49,0.23c-0.84,0-1.61-0.15-2.32-0.44c-0.71-0.29-1.31-0.79-1.82-1.49L414.21,96.19z"/>
	</g>
</g>
</svg>
