<?xml version="1.0" encoding="UTF-8"?>
<svg width="29px" height="29px" viewBox="0 0 29 29" version="1.1" xmlns="http://www.w3.org/2000/svg" xmlns:xlink="http://www.w3.org/1999/xlink">
    <!-- Generator: Sketch 54.1 (76490) - https://sketchapp.com -->
    <title>Group 5</title>
    <desc>Created with Sketch.</desc>
    <g id="Home-Page" stroke="none" stroke-width="1" fill="none" fill-rule="evenodd" stroke-linecap="round" stroke-linejoin="round">
        <g id="Desktop-HD" transform="translate(-1199.000000, -44.000000)" stroke="#B80628" stroke-width="1.5">
            <g id="Group-5" transform="translate(1200.000000, 45.000000)">
                <path d="M11.3761578,9.94146488 C12.1349364,9.18217014 12.1971391,8.01307469 11.5133837,7.33023177 L9.65822246,5.4749694 C8.97541674,4.79165163 7.80638499,4.85290805 7.04760645,5.61172793 L5.9165611,6.74283491 C4.9360369,7.72341253 4.71571573,9.18454442 5.38427654,10.2458476 C8.25699877,14.7992417 12.2004629,18.7438704 16.7545586,21.6162743 C17.8134298,22.2843967 19.2787556,22.0631138 20.2573804,21.0844356 L21.387951,19.9533286 C22.1472043,19.1945088 22.2084574,18.0254133 21.524702,17.3420955 L19.6704904,15.4868332 C18.986735,14.8035154 17.8181781,14.8652467 17.0589247,15.6240665 L16.3718455,16.3111832 C14.3167808,14.6639077 12.3362643,12.6832834 10.6900283,10.6281066 L11.3761578,9.94146488 Z" id="Stroke-1"></path>
                <path d="M20.5432759,20.5432759 C21.1302931,21.1302931 22.3755517,27 13.5,27 C6.04381034,27 0,20.9557241 0,13.5 C0,6.04381034 6.04381034,0 13.5,0 C20.9561897,0 27,6.04381034 27,13.5 C27,16.3317414 26.1280862,18.9595862 24.638431,21.1302931" id="Stroke-3"></path>
            </g>
        </g>
    </g>
</svg>